<svg width="848" height="848" viewBox="0 0 848 848" fill="none" xmlns="http://www.w3.org/2000/svg">
<circle cx="424" cy="424" r="424" fill="white"/>
<g filter="url(#filter0_d_6_2)">
<path d="M160.545 610V604.159L183.773 571.568H160.5V563.455H196.136V569.295L172.886 601.886H196.182V610H160.545ZM211.756 610H201.21L217.278 563.455H229.96L246.006 610H235.46L223.801 574.091H223.438L211.756 610ZM211.097 591.705H236.006V599.386H211.097V591.705ZM251.608 563.455H263.744L276.562 594.727H277.108L289.926 563.455H302.062V610H292.517V579.705H292.131L280.085 609.773H273.585L261.54 579.591H261.153V610H251.608V563.455ZM310.17 610V563.455H328.807C332.231 563.455 335.087 563.962 337.375 564.977C339.663 565.992 341.383 567.402 342.534 569.205C343.686 570.992 344.261 573.053 344.261 575.386C344.261 577.205 343.898 578.803 343.17 580.182C342.443 581.545 341.443 582.667 340.17 583.545C338.913 584.409 337.473 585.023 335.852 585.386V585.841C337.625 585.917 339.284 586.417 340.83 587.341C342.39 588.265 343.655 589.561 344.625 591.227C345.595 592.879 346.08 594.848 346.08 597.136C346.08 599.606 345.466 601.811 344.239 603.75C343.027 605.674 341.231 607.197 338.852 608.318C336.473 609.439 333.542 610 330.057 610H310.17ZM320.011 601.955H328.034C330.777 601.955 332.777 601.432 334.034 600.386C335.292 599.326 335.92 597.917 335.92 596.159C335.92 594.871 335.61 593.735 334.989 592.75C334.367 591.765 333.481 590.992 332.33 590.432C331.193 589.871 329.837 589.591 328.261 589.591H320.011V601.955ZM320.011 582.932H327.307C328.655 582.932 329.852 582.697 330.898 582.227C331.958 581.742 332.792 581.061 333.398 580.182C334.019 579.303 334.33 578.25 334.33 577.023C334.33 575.341 333.731 573.985 332.534 572.955C331.352 571.924 329.67 571.409 327.489 571.409H320.011V582.932ZM395.256 586.727C395.256 591.803 394.294 596.121 392.369 599.682C390.46 603.242 387.854 605.962 384.551 607.841C381.263 609.705 377.566 610.636 373.46 610.636C369.324 610.636 365.612 609.697 362.324 607.818C359.036 605.939 356.438 603.22 354.528 599.659C352.619 596.098 351.665 591.788 351.665 586.727C351.665 581.652 352.619 577.333 354.528 573.773C356.438 570.212 359.036 567.5 362.324 565.636C365.612 563.758 369.324 562.818 373.46 562.818C377.566 562.818 381.263 563.758 384.551 565.636C387.854 567.5 390.46 570.212 392.369 573.773C394.294 577.333 395.256 581.652 395.256 586.727ZM385.278 586.727C385.278 583.439 384.786 580.667 383.801 578.409C382.831 576.152 381.46 574.439 379.688 573.273C377.915 572.106 375.839 571.523 373.46 571.523C371.081 571.523 369.006 572.106 367.233 573.273C365.46 574.439 364.081 576.152 363.097 578.409C362.127 580.667 361.642 583.439 361.642 586.727C361.642 590.015 362.127 592.788 363.097 595.045C364.081 597.303 365.46 599.015 367.233 600.182C369.006 601.348 371.081 601.932 373.46 601.932C375.839 601.932 377.915 601.348 379.688 600.182C381.46 599.015 382.831 597.303 383.801 595.045C384.786 592.788 385.278 590.015 385.278 586.727ZM415.585 571.568V563.455H453.812V571.568H439.562V610H429.835V571.568H415.585ZM500.756 586.727C500.756 591.803 499.794 596.121 497.869 599.682C495.96 603.242 493.354 605.962 490.051 607.841C486.763 609.705 483.066 610.636 478.96 610.636C474.824 610.636 471.112 609.697 467.824 607.818C464.536 605.939 461.938 603.22 460.028 599.659C458.119 596.098 457.165 591.788 457.165 586.727C457.165 581.652 458.119 577.333 460.028 573.773C461.938 570.212 464.536 567.5 467.824 565.636C471.112 563.758 474.824 562.818 478.96 562.818C483.066 562.818 486.763 563.758 490.051 565.636C493.354 567.5 495.96 570.212 497.869 573.773C499.794 577.333 500.756 581.652 500.756 586.727ZM490.778 586.727C490.778 583.439 490.286 580.667 489.301 578.409C488.331 576.152 486.96 574.439 485.188 573.273C483.415 572.106 481.339 571.523 478.96 571.523C476.581 571.523 474.506 572.106 472.733 573.273C470.96 574.439 469.581 576.152 468.597 578.409C467.627 580.667 467.142 583.439 467.142 586.727C467.142 590.015 467.627 592.788 468.597 595.045C469.581 597.303 470.96 599.015 472.733 600.182C474.506 601.348 476.581 601.932 478.96 601.932C481.339 601.932 483.415 601.348 485.188 600.182C486.96 599.015 488.331 597.303 489.301 595.045C490.286 592.788 490.778 590.015 490.778 586.727ZM536.795 563.455H546.636V593.682C546.636 597.076 545.826 600.045 544.205 602.591C542.598 605.136 540.348 607.121 537.455 608.545C534.561 609.955 531.189 610.659 527.341 610.659C523.477 610.659 520.098 609.955 517.205 608.545C514.311 607.121 512.061 605.136 510.455 602.591C508.848 600.045 508.045 597.076 508.045 593.682V563.455H517.886V592.841C517.886 594.614 518.273 596.189 519.045 597.568C519.833 598.947 520.939 600.03 522.364 600.818C523.788 601.606 525.447 602 527.341 602C529.25 602 530.909 601.606 532.318 600.818C533.742 600.03 534.841 598.947 535.614 597.568C536.402 596.189 536.795 594.614 536.795 592.841V563.455ZM554.733 610V563.455H573.097C576.612 563.455 579.612 564.083 582.097 565.341C584.597 566.583 586.498 568.348 587.801 570.636C589.119 572.909 589.778 575.583 589.778 578.659C589.778 581.75 589.112 584.409 587.778 586.636C586.445 588.848 584.513 590.545 581.983 591.727C579.468 592.909 576.422 593.5 572.847 593.5H560.551V585.591H571.256C573.134 585.591 574.695 585.333 575.938 584.818C577.18 584.303 578.104 583.53 578.71 582.5C579.331 581.47 579.642 580.189 579.642 578.659C579.642 577.114 579.331 575.811 578.71 574.75C578.104 573.689 577.172 572.886 575.915 572.341C574.672 571.78 573.104 571.5 571.21 571.5H564.574V610H554.733ZM579.869 588.818L591.438 610H580.574L569.256 588.818H579.869ZM619.568 610H609.023L625.091 563.455H637.773L653.818 610H643.273L631.614 574.091H631.25L619.568 610ZM618.909 591.705H643.818V599.386H618.909V591.705ZM659.42 610V563.455H677.784C681.314 563.455 684.322 564.129 686.807 565.477C689.292 566.811 691.186 568.667 692.489 571.045C693.807 573.409 694.466 576.136 694.466 579.227C694.466 582.318 693.799 585.045 692.466 587.409C691.133 589.773 689.201 591.614 686.67 592.932C684.155 594.25 681.11 594.909 677.534 594.909H665.83V587.023H675.943C677.837 587.023 679.398 586.697 680.625 586.045C681.867 585.379 682.792 584.462 683.398 583.295C684.019 582.114 684.33 580.758 684.33 579.227C684.33 577.682 684.019 576.333 683.398 575.182C682.792 574.015 681.867 573.114 680.625 572.477C679.383 571.826 677.807 571.5 675.898 571.5H669.261V610H659.42ZM700.858 610V563.455H719.222C722.752 563.455 725.759 564.129 728.244 565.477C730.729 566.811 732.623 568.667 733.926 571.045C735.244 573.409 735.903 576.136 735.903 579.227C735.903 582.318 735.237 585.045 733.903 587.409C732.57 589.773 730.638 591.614 728.108 592.932C725.593 594.25 722.547 594.909 718.972 594.909H707.267V587.023H717.381C719.275 587.023 720.835 586.697 722.062 586.045C723.305 585.379 724.229 584.462 724.835 583.295C725.456 582.114 725.767 580.758 725.767 579.227C725.767 577.682 725.456 576.333 724.835 575.182C724.229 574.015 723.305 573.114 722.062 572.477C720.82 571.826 719.244 571.5 717.335 571.5H710.699V610H700.858Z" fill="black" fill-opacity="0.67" shape-rendering="crispEdges"/>
</g>
<g filter="url(#filter1_d_6_2)">
<g filter="url(#filter2_i_6_2)">
<path fill-rule="evenodd" clip-rule="evenodd" d="M378.266 408.255C360.819 406.934 343.726 408.818 327.37 413.498C336.651 389.83 342.721 363.838 344.802 336.352C349.778 270.607 330.903 209.874 297 167C401.956 190.227 476.612 287.496 468.278 397.603C467.135 412.693 464.489 427.309 460.495 441.318C436.766 422.41 408.79 410.565 378.266 408.255Z" fill="#EAD200"/>
<path fill-rule="evenodd" clip-rule="evenodd" d="M413.996 405.172C396.549 403.852 379.456 405.736 363.1 410.416C372.381 386.748 378.451 360.756 380.532 333.27C385.544 267.055 366.362 205.923 332 163C443.014 181.382 523.542 281.719 514.903 395.85C513.587 413.234 510.274 429.99 505.206 445.912C479.682 422.548 448.464 407.781 413.996 405.172Z" fill="#33BA04"/>
<path fill-rule="evenodd" clip-rule="evenodd" d="M461.941 415.368C444.493 414.047 427.4 415.931 411.045 420.612C420.326 396.944 426.396 370.951 428.476 343.465C433.817 272.913 411.69 208.133 373 165C487.893 179.981 572.294 282.263 563.46 398.967C561.981 418.498 557.982 437.236 551.805 454.889C526.533 432.23 495.805 417.931 461.941 415.368Z" fill="#EF4141"/>
</g>
<g filter="url(#filter3_i_6_2)">
<path fill-rule="evenodd" clip-rule="evenodd" d="M679.061 363C633.382 410.41 551.193 442.038 457.394 442.038C378.441 442.038 307.714 419.63 260.061 384.263C278.935 460.46 364.783 518 467.835 518C580.276 518 672.236 449.497 679.061 363Z" fill="#E68009"/>
<path fill-rule="evenodd" clip-rule="evenodd" d="M648.856 402.019C603.156 438.349 524.418 458.834 436.905 452.031C363.244 446.304 298.713 422.437 256.553 389.407C269.208 454.491 345.563 508.832 441.708 516.307C546.614 524.463 636.865 473.852 648.856 402.019Z" fill="white"/>
<path fill-rule="evenodd" clip-rule="evenodd" d="M219.341 354C245.738 394.235 302.552 431.468 373.659 450.317C433.512 466.182 491.02 465.716 533.285 452.124C505.747 498.245 430.676 518.685 352.554 497.978C267.315 475.383 209.497 412.032 219.341 354Z" fill="#E68009"/>
<path fill-rule="evenodd" clip-rule="evenodd" d="M235.928 386C264.264 418.981 320.396 448.222 387.92 461.351C444.755 472.402 497.819 469.734 535.515 456.57C514.62 496.661 447.302 516.913 373.118 502.49C292.175 486.752 232.545 435.464 235.928 386Z" fill="white"/>
</g>
</g>
<defs>
<filter id="filter0_d_6_2" x="156.5" y="562.818" width="583.403" height="55.8409" filterUnits="userSpaceOnUse" color-interpolation-filters="sRGB">
<feFlood flood-opacity="0" result="BackgroundImageFix"/>
<feColorMatrix in="SourceAlpha" type="matrix" values="0 0 0 0 0 0 0 0 0 0 0 0 0 0 0 0 0 0 127 0" result="hardAlpha"/>
<feOffset dy="4"/>
<feGaussianBlur stdDeviation="2"/>
<feComposite in2="hardAlpha" operator="out"/>
<feColorMatrix type="matrix" values="0 0 0 0 0 0 0 0 0 0 0 0 0 0 0 0 0 0 0.25 0"/>
<feBlend mode="normal" in2="BackgroundImageFix" result="effect1_dropShadow_6_2"/>
<feBlend mode="normal" in="SourceGraphic" in2="effect1_dropShadow_6_2" result="shape"/>
</filter>
<filter id="filter1_d_6_2" x="214.251" y="163" width="468.811" height="363" filterUnits="userSpaceOnUse" color-interpolation-filters="sRGB">
<feFlood flood-opacity="0" result="BackgroundImageFix"/>
<feColorMatrix in="SourceAlpha" type="matrix" values="0 0 0 0 0 0 0 0 0 0 0 0 0 0 0 0 0 0 127 0" result="hardAlpha"/>
<feOffset dy="4"/>
<feGaussianBlur stdDeviation="2"/>
<feComposite in2="hardAlpha" operator="out"/>
<feColorMatrix type="matrix" values="0 0 0 0 0 0 0 0 0 0 0 0 0 0 0 0 0 0 0.25 0"/>
<feBlend mode="normal" in2="BackgroundImageFix" result="effect1_dropShadow_6_2"/>
<feBlend mode="normal" in="SourceGraphic" in2="effect1_dropShadow_6_2" result="shape"/>
</filter>
<filter id="filter2_i_6_2" x="297" y="163" width="267.094" height="295.889" filterUnits="userSpaceOnUse" color-interpolation-filters="sRGB">
<feFlood flood-opacity="0" result="BackgroundImageFix"/>
<feBlend mode="normal" in="SourceGraphic" in2="BackgroundImageFix" result="shape"/>
<feColorMatrix in="SourceAlpha" type="matrix" values="0 0 0 0 0 0 0 0 0 0 0 0 0 0 0 0 0 0 127 0" result="hardAlpha"/>
<feOffset dy="4"/>
<feGaussianBlur stdDeviation="2"/>
<feComposite in2="hardAlpha" operator="arithmetic" k2="-1" k3="1"/>
<feColorMatrix type="matrix" values="0 0 0 0 0 0 0 0 0 0 0 0 0 0 0 0 0 0 0.25 0"/>
<feBlend mode="normal" in2="shape" result="effect1_innerShadow_6_2"/>
</filter>
<filter id="filter3_i_6_2" x="218.251" y="354" width="460.811" height="168" filterUnits="userSpaceOnUse" color-interpolation-filters="sRGB">
<feFlood flood-opacity="0" result="BackgroundImageFix"/>
<feBlend mode="normal" in="SourceGraphic" in2="BackgroundImageFix" result="shape"/>
<feColorMatrix in="SourceAlpha" type="matrix" values="0 0 0 0 0 0 0 0 0 0 0 0 0 0 0 0 0 0 127 0" result="hardAlpha"/>
<feOffset dy="4"/>
<feGaussianBlur stdDeviation="2"/>
<feComposite in2="hardAlpha" operator="arithmetic" k2="-1" k3="1"/>
<feColorMatrix type="matrix" values="0 0 0 0 0 0 0 0 0 0 0 0 0 0 0 0 0 0 0.25 0"/>
<feBlend mode="normal" in2="shape" result="effect1_innerShadow_6_2"/>
</filter>
</defs>
</svg>
